<svg width="460" height="309" viewBox="0 0 460 309" fill="none" xmlns="http://www.w3.org/2000/svg">
<path d="M234.41 146.756L344.188 36.9784C345.125 36.0407 346.397 35.5139 347.723 35.5139H377.198" stroke="#E9FFF9" stroke-linecap="round" stroke-dasharray="1 5"/>
<path d="M234.41 147.309L129.651 222.742C128.8 223.355 127.778 223.684 126.729 223.684H98.2633" stroke="#E9FFF9" stroke-linecap="round" stroke-dasharray="1 5"/>
<path d="M303.146 135.244C296.394 130.927 289.088 128.05 281.562 128.05C252.118 128.05 238.725 159.928 202.419 159.928C173.53 159.817 166.003 138.454 164.121 129.821C174.969 102.481 201.534 83.11 232.748 83.11C265.844 83.11 293.959 105.026 303.146 135.244Z" fill="url(#paint0_linear)"/>
<path d="M306.356 156.718C306.356 168.119 303.811 178.856 299.162 188.485C292.742 183.283 285.326 179.52 277.135 179.52C250.237 179.52 252.119 198.115 210.721 198.115C176.629 198.115 163.015 170.997 159.251 161.367C159.141 159.817 159.141 158.268 159.141 156.718C159.141 147.531 160.801 138.786 163.9 130.706C165.007 141 170.984 165.241 203.637 165.241C245.035 165.241 250.791 136.573 280.898 136.573C293.959 136.573 302.593 143.767 305.692 146.867C306.135 150.077 306.356 153.397 306.356 156.718Z" fill="url(#paint1_linear)"/>
<path d="M305.692 146.867C302.592 143.767 293.959 136.573 280.897 136.573C250.79 136.573 245.034 165.241 203.637 165.241C170.873 165.241 164.896 141 163.789 130.706C163.9 130.374 164.01 130.042 164.121 129.821C166.003 138.565 173.419 159.485 202.309 159.485C238.615 159.485 252.118 128.05 281.562 128.05C289.088 128.05 296.394 130.927 303.146 135.244C304.253 139.008 305.138 142.882 305.692 146.867Z" fill="url(#paint2_linear)"/>
<path d="M299.16 188.486C287.317 213.28 261.969 230.326 232.747 230.326C193.674 230.326 161.685 199.886 159.25 161.367C163.013 170.997 176.628 198.115 210.72 198.115C252.118 198.115 250.236 179.52 277.133 179.52C285.324 179.52 292.74 183.283 299.16 188.486Z" fill="url(#paint3_linear)"/>
<path d="M214.668 128.452C215.561 131.509 212.966 134.956 208.872 136.152C204.778 137.348 200.735 135.84 199.842 132.783" stroke="#17173A" stroke-width="3" stroke-linecap="round"/>
<path d="M270.265 111.889C271.158 114.946 268.563 118.393 264.469 119.589C260.375 120.785 256.332 119.277 255.439 116.22" stroke="#17173A" stroke-width="3" stroke-linecap="round"/>
<circle cx="232.749" cy="158.932" r="100.173" stroke="url(#paint4_linear)" stroke-linecap="round"/>
<circle cx="232.749" cy="158.932" r="132.273" stroke="url(#paint5_linear)" stroke-linecap="round" stroke-dasharray="1 5"/>
<circle cx="400.995" cy="36.0674" r="23.798" stroke="#E9FFF9" stroke-linecap="round" stroke-dasharray="1 5"/>
<circle cx="71.1437" cy="223.131" r="23.798" stroke="#E9FFF9" stroke-linecap="round" stroke-dasharray="1 5"/>
<path d="M332.922 159.485H376.549C390.356 159.485 401.549 170.678 401.549 184.485V227.005" stroke="#E9FFF9" stroke-linecap="round" stroke-dasharray="1 5"/>
<path d="M132.576 159.485L88.9493 159.485C75.1422 159.485 63.9493 148.292 63.9493 134.485L63.9493 83.11" stroke="#E9FFF9" stroke-linecap="round" stroke-dasharray="1 5"/>
<circle cx="400.442" cy="36.6208" r="7.7482" fill="url(#paint6_linear)"/>
<path d="M24.0103 78.7158C24.0709 78.6937 24.135 78.6825 24.1995 78.6825H119.473C120.093 78.6825 120.244 79.5444 119.662 79.756L99.1796 87.2043C98.5734 87.4248 97.9333 87.5375 97.2882 87.5375H2.89192C2.27264 87.5375 2.12078 86.6756 2.70278 86.464L24.0103 78.7158Z" fill="url(#paint7_linear)"/>
<path d="M22.0782 69.0537C22.6844 68.8333 23.3245 68.7205 23.9696 68.7205H118.366C118.985 68.7205 119.137 69.5824 118.555 69.7941L98.0722 77.2424C97.466 77.4628 96.8259 77.5756 96.1808 77.5756H1.7845C1.16522 77.5756 1.01336 76.7137 1.59536 76.502L22.0782 69.0537Z" fill="#E9FFF9"/>
<path fill-rule="evenodd" clip-rule="evenodd" d="M21.7726 68.2143C22.4766 67.9583 23.22 67.8273 23.9692 67.8273H118.366C119.984 67.8273 120.381 70.0803 118.86 70.6335L98.377 78.0818C97.673 78.3378 96.9296 78.4688 96.1804 78.4688H1.78413C0.165398 78.4688 -0.231578 76.2158 1.28974 75.6626L21.7726 68.2143ZM23.9692 69.6137C23.4282 69.6137 22.8915 69.7083 22.3831 69.8931L3.71268 76.6824H96.1804C96.7214 76.6824 97.2582 76.5878 97.7665 76.403L116.437 69.6137H23.9692Z" fill="#753177"/>
<path d="M52.2156 7.95C52.6956 5.93954 54.4925 4.52118 56.5595 4.52118H99.1823C102.068 4.52118 104.196 7.21736 103.526 10.0244L89.2727 69.7192C88.7927 71.7297 86.9958 73.1481 84.9288 73.1481H42.306C39.42 73.1481 37.2918 70.4519 37.962 67.6448L52.2156 7.95Z" fill="url(#paint8_linear)"/>
<path d="M50.0004 4.62932C50.4804 2.61887 52.2773 1.2005 54.3443 1.2005H96.9671C99.8531 1.2005 101.981 3.89668 101.311 6.70374L85.3138 73.7015H33.5078L50.0004 4.62932Z" fill="#FEEBED"/>
<path fill-rule="evenodd" clip-rule="evenodd" d="M49.1323 4.4219C49.7084 2.00935 51.8646 0.307312 54.345 0.307312H96.9678C100.431 0.307312 102.985 3.54273 102.181 6.9112L86.0196 74.5947H32.377L49.1323 4.4219ZM54.345 2.09373C52.6914 2.09373 51.2539 3.22842 50.8699 4.83678L34.6401 72.8083H84.6095L100.443 6.49632C100.979 4.25067 99.2766 2.09373 96.9678 2.09373H54.345Z" fill="#753177"/>
<path fill-rule="evenodd" clip-rule="evenodd" d="M46.4531 42.5058C46.4531 42.0125 46.853 41.6125 47.3463 41.6125H65.0565C65.5498 41.6125 65.9497 42.0125 65.9497 42.5058C65.9497 42.9991 65.5498 43.399 65.0565 43.399H47.3463C46.853 43.399 46.4531 42.9991 46.4531 42.5058Z" fill="#753177"/>
<path fill-rule="evenodd" clip-rule="evenodd" d="M44.2402 50.254C44.2402 49.7607 44.6401 49.3607 45.1334 49.3607H51.7748C52.2681 49.3607 52.668 49.7607 52.668 50.254C52.668 50.7473 52.2681 51.1472 51.7748 51.1472H45.1334C44.6401 51.1472 44.2402 50.7473 44.2402 50.254Z" fill="#753177"/>
<path fill-rule="evenodd" clip-rule="evenodd" d="M55.3086 50.254C55.3086 49.7607 55.7085 49.3607 56.2018 49.3607H62.8431C63.3364 49.3607 63.7363 49.7607 63.7363 50.254C63.7363 50.7473 63.3364 51.1472 62.8431 51.1472H56.2018C55.7085 51.1472 55.3086 50.7473 55.3086 50.254Z" fill="#753177"/>
<path fill-rule="evenodd" clip-rule="evenodd" d="M67.4844 42.5058C67.4844 42.0125 67.8843 41.6125 68.3776 41.6125H84.9809C85.4742 41.6125 85.8741 42.0125 85.8741 42.5058C85.8741 42.9991 85.4742 43.399 84.9809 43.399H68.3776C67.8843 43.399 67.4844 42.9991 67.4844 42.5058Z" fill="#753177"/>
<path fill-rule="evenodd" clip-rule="evenodd" d="M48.666 33.6507C48.666 33.1574 49.0659 32.7575 49.5592 32.7575H87.0739C87.5672 32.7575 87.9671 33.1574 87.9671 33.6507C87.9671 34.144 87.5672 34.5439 87.0739 34.5439H49.5592C49.0659 34.5439 48.666 34.144 48.666 33.6507Z" fill="#753177"/>
<path fill-rule="evenodd" clip-rule="evenodd" d="M81.3817 49.5682C81.5669 50.0254 81.3464 50.5462 80.8892 50.7313C79.0212 51.4879 77.747 52.4669 76.7411 53.8499C75.7152 55.2605 74.9344 57.1366 74.1405 59.7538C73.9943 60.236 73.5622 60.4614 73.1944 60.4693C72.8231 60.4774 72.3701 60.2649 72.2123 59.7707C72.0437 59.243 71.673 58.1773 71.1035 57.0296C70.5281 55.8701 69.782 54.6931 68.8875 53.888C68.5208 53.558 68.4911 52.9933 68.8211 52.6266C69.1511 52.2599 69.7159 52.2302 70.0825 52.5602C71.2202 53.5841 72.0864 54.9915 72.7038 56.2356C72.8567 56.5439 72.9964 56.8462 73.1228 57.1355C73.7413 55.4271 74.4262 53.9956 75.2964 52.7992C76.5218 51.1144 78.0796 49.9419 80.2186 49.0756C80.6758 48.8904 81.1966 49.1109 81.3817 49.5682Z" fill="#753177"/>
<path d="M86.493 7.8418V8.11472C86.683 11.7993 88.4876 14.6651 91.3845 15.8477L91.6219 15.9387L91.242 16.0752C87.8702 17.3944 84.9908 20.5437 82.9488 24.1373L82.3614 24.4451C82.1714 20.7605 80.3668 17.6218 77.4699 16.4391L77.2324 16.3481C80.8892 15.029 84.261 11.9358 86.3505 8.06924L86.493 7.8418Z" fill="url(#paint9_linear)"/>
<path fill-rule="evenodd" clip-rule="evenodd" d="M86.7403 6.98336C87.1231 7.09335 87.3868 7.44352 87.3868 7.84183V8.0913C87.5689 11.4938 89.2154 13.993 91.714 15.0173L91.9421 15.1047C92.2909 15.2383 92.5197 15.5748 92.5157 15.9482C92.5118 16.3216 92.276 16.6532 91.9245 16.7794L91.5566 16.9115C88.4578 18.1285 85.7151 21.0781 83.726 24.5786C83.6414 24.7275 83.5157 24.849 83.364 24.9285L82.7766 25.2363C82.5069 25.3776 82.1839 25.3718 81.9195 25.221C81.6551 25.0702 81.4856 24.7951 81.47 24.4911C81.2922 21.0424 79.6195 18.2861 77.1415 17.2696L76.9135 17.1823C76.565 17.0488 76.3362 16.7126 76.3399 16.3394C76.3435 15.9662 76.5789 15.6346 76.9299 15.508C80.3481 14.2749 83.5627 11.3503 85.5654 7.64461C85.5744 7.62781 85.5841 7.61131 85.5942 7.59512L85.7367 7.36768C85.9481 7.03013 86.3575 6.87336 86.7403 6.98336ZM79.2894 16.4197C81.1845 17.7441 82.4503 19.895 82.9843 22.3584C84.719 19.6773 86.9504 17.2947 89.5558 15.8787C87.746 14.656 86.5021 12.7468 85.9341 10.448C84.1649 12.9914 81.8466 15.0963 79.2894 16.4197Z" fill="#753177"/>
<path fill-rule="evenodd" clip-rule="evenodd" d="M26.8691 73.1481C26.8691 72.2311 27.6125 71.4877 28.5295 71.4877H93.2822C94.1992 71.4877 94.9426 72.2311 94.9426 73.1481C94.9426 74.065 94.1992 74.8084 93.2822 74.8084H28.5295C27.6125 74.8084 26.8691 74.065 26.8691 73.1481Z" fill="#753177"/>
<path d="M1.41016 84.2169V77.0222L96.6023 77.5756L118.74 69.274V76.4687L96.6023 84.2169H1.41016Z" fill="#E9FFF9"/>
<path fill-rule="evenodd" clip-rule="evenodd" d="M119.249 68.5398C119.49 68.7067 119.634 68.981 119.634 69.2739V76.4687C119.634 76.8483 119.394 77.1864 119.036 77.3118L96.898 85.06C96.8031 85.0932 96.7034 85.1101 96.6029 85.1101H1.41078C0.91748 85.1101 0.517578 84.7102 0.517578 84.2169V77.0221C0.517578 76.7844 0.612398 76.5564 0.781031 76.3887C0.949664 76.2211 1.17819 76.1276 1.41598 76.129L96.4434 76.6814L118.427 68.4376C118.701 68.3348 119.009 68.3729 119.249 68.5398ZM117.847 70.5628L96.9165 78.4119C96.8146 78.4501 96.7066 78.4694 96.5977 78.4688L2.30399 77.9206V83.3237H96.4511L117.847 75.835V70.5628Z" fill="#753177"/>
<path d="M377.04 231.725C377.494 229.681 379.307 228.227 381.4 228.227H424.056C426.913 228.227 429.035 230.873 428.416 233.662L412.536 305.119C412.082 307.162 410.27 308.616 408.177 308.616H365.521C362.663 308.616 360.541 305.97 361.161 303.181L377.04 231.725Z" fill="url(#paint10_linear)"/>
<path d="M374.36 229.045C374.815 227.002 376.627 225.548 378.72 225.548H421.376C424.233 225.548 426.356 228.194 425.736 230.983L409.857 302.439C409.403 304.483 407.59 305.936 405.497 305.936H362.841C359.984 305.936 357.861 303.291 358.481 300.502L374.36 229.045Z" fill="#FEEBED"/>
<path fill-rule="evenodd" clip-rule="evenodd" d="M373.488 228.851C374.032 226.399 376.207 224.655 378.719 224.655H421.375C424.804 224.655 427.351 227.83 426.607 231.176L410.728 302.633C410.183 305.085 408.008 306.83 405.496 306.83H362.84C359.411 306.83 356.865 303.655 357.608 300.308L373.488 228.851ZM378.719 226.441C377.045 226.441 375.595 227.604 375.231 229.239L359.352 300.695C358.856 302.927 360.554 305.043 362.84 305.043H405.496C407.171 305.043 408.62 303.88 408.984 302.245L424.863 230.789C425.359 228.558 423.661 226.441 421.375 226.441H378.719Z" fill="#753177"/>
<path fill-rule="evenodd" clip-rule="evenodd" d="M405.996 244.121L403.068 244.121L403.803 240.882L406.731 240.882C408.548 240.882 410.118 241.436 411.376 242.382L408.936 245.087C408.093 244.453 407.1 244.121 405.996 244.121ZM397.21 244.121L391.352 244.121L392.088 240.882L397.945 240.882L397.21 244.121ZM385.495 244.121H382.566L383.301 240.882L386.23 240.882L385.495 244.121ZM411.228 254.781C411.529 253.456 411.64 252.192 411.585 251.027L414.983 250.191C415.051 251.632 414.913 253.177 414.549 254.781C414.185 256.385 413.621 257.931 412.899 259.371L409.881 258.536C410.464 257.371 410.927 256.107 411.228 254.781ZM401.156 265.442C402.26 265.442 403.404 265.11 404.534 264.476L405.747 267.18C404.059 268.126 402.238 268.68 400.421 268.68H396.112L396.847 265.442H401.156ZM378.5 266.969C380.218 266.006 382.071 265.442 383.92 265.442H388.229L387.494 268.68H383.185C382.049 268.68 380.873 269.022 379.712 269.673L378.5 266.969ZM369.529 279.608C369.901 277.972 370.475 276.396 371.211 274.927L374.23 275.763C373.632 276.956 373.158 278.251 372.85 279.608C372.542 280.965 372.428 282.26 372.484 283.453L369.086 284.289C369.017 282.82 369.158 281.244 369.529 279.608ZM377.488 293.774C375.64 293.774 374.042 293.21 372.761 292.247L375.201 289.543C376.067 290.194 377.088 290.536 378.223 290.536H381.539L380.804 293.774H377.488ZM394.065 293.774H387.434L388.17 290.536H394.8L394.065 293.774ZM407.326 293.774H400.696L401.431 290.536H408.062L407.326 293.774ZM420.588 293.774H413.957L414.692 290.536H421.323L420.588 293.774ZM433.849 293.774H427.219L427.954 290.536H434.584L433.849 293.774ZM443.795 293.774H440.48L441.215 290.536H444.53L443.795 293.774Z" fill="url(#paint11_linear)"/>
<path d="M386.877 242.966C386.42 245.056 384.316 246.751 382.176 246.751C380.036 246.751 378.672 245.056 379.128 242.966C379.585 240.875 381.69 239.181 383.829 239.181C385.969 239.181 387.333 240.875 386.877 242.966Z" fill="url(#paint12_linear)"/>
<path fill-rule="evenodd" clip-rule="evenodd" d="M383.64 240.053C381.994 240.053 380.374 241.357 380.023 242.966C379.672 244.574 380.722 245.878 382.368 245.878C384.014 245.878 385.634 244.574 385.985 242.966C386.336 241.357 385.286 240.053 383.64 240.053ZM378.237 242.966C378.798 240.393 381.388 238.308 384.021 238.308C386.654 238.308 388.333 240.393 387.771 242.966C387.21 245.538 384.62 247.623 381.987 247.623C379.354 247.623 377.675 245.538 378.237 242.966Z" fill="#753177"/>
<path d="M383.556 268.424C383.1 270.514 380.995 272.209 378.856 272.209C376.716 272.209 375.352 270.514 375.808 268.424C376.265 266.334 378.369 264.639 380.509 264.639C382.648 264.639 384.013 266.334 383.556 268.424Z" fill="url(#paint13_linear)"/>
<path fill-rule="evenodd" clip-rule="evenodd" d="M380.318 265.512C378.671 265.512 377.052 266.816 376.701 268.424C376.35 270.032 377.399 271.336 379.046 271.336C380.692 271.336 382.311 270.032 382.663 268.424C383.014 266.816 381.964 265.512 380.318 265.512ZM374.914 268.424C375.476 265.852 378.066 263.767 380.699 263.767C383.332 263.767 385.011 265.852 384.449 268.424C383.887 270.996 381.297 273.082 378.665 273.082C376.032 273.082 374.353 270.996 374.914 268.424Z" fill="#753177"/>
<path d="M394.625 291.669C394.168 293.759 392.064 295.454 389.924 295.454C387.784 295.454 386.42 293.759 386.877 291.669C387.333 289.578 389.438 287.884 391.577 287.884C393.717 287.884 395.081 289.578 394.625 291.669Z" fill="url(#paint14_linear)"/>
<path fill-rule="evenodd" clip-rule="evenodd" d="M391.388 288.756C389.742 288.756 388.122 290.06 387.771 291.669C387.42 293.277 388.47 294.581 390.116 294.581C391.762 294.581 393.382 293.277 393.733 291.669C394.084 290.06 393.034 288.756 391.388 288.756ZM385.985 291.669C386.547 289.096 389.136 287.011 391.769 287.011C394.402 287.011 396.081 289.096 395.519 291.669C394.958 294.241 392.368 296.326 389.735 296.326C387.102 296.326 385.423 294.241 385.985 291.669Z" fill="#753177"/>
<path d="M446.648 291.669C446.192 293.759 444.087 295.454 441.947 295.454C439.808 295.454 438.443 293.759 438.9 291.669C439.356 289.578 441.461 287.884 443.601 287.884C445.74 287.884 447.105 289.578 446.648 291.669Z" fill="url(#paint15_linear)"/>
<path fill-rule="evenodd" clip-rule="evenodd" d="M443.412 288.756C441.765 288.756 440.146 290.06 439.795 291.669C439.443 293.277 440.493 294.581 442.139 294.581C443.786 294.581 445.405 293.277 445.756 291.669C446.108 290.06 445.058 288.756 443.412 288.756ZM438.008 291.669C438.57 289.096 441.16 287.011 443.793 287.011C446.426 287.011 448.105 289.096 447.543 291.669C446.981 294.241 444.391 296.326 441.758 296.326C439.125 296.326 437.446 294.241 438.008 291.669Z" fill="#753177"/>
<path d="M381.803 241.042C382.241 241.723 383.234 241.73 383.678 241.055C389.434 232.301 399.335 217.85 399.335 208.846C399.335 199.924 391.902 192.692 382.732 192.692C373.562 192.692 366.129 199.924 366.129 208.846C366.129 217.822 376.38 232.612 381.803 241.042Z" fill="#E9FFF9"/>
<path fill-rule="evenodd" clip-rule="evenodd" d="M382.733 193.585C374.033 193.585 367.023 200.44 367.023 208.846C367.023 210.936 367.623 213.428 368.652 216.164C369.677 218.889 371.106 221.801 372.715 224.717C375.315 229.43 378.353 234.095 380.862 237.948C381.461 238.868 382.03 239.742 382.555 240.559C382.645 240.699 382.846 240.696 382.933 240.564C383.265 240.059 383.61 239.536 383.966 238.997C386.705 234.847 390.074 229.742 392.883 224.615C396.078 218.781 398.443 213.097 398.443 208.846C398.443 200.44 391.432 193.585 382.733 193.585ZM365.236 208.846C365.236 199.408 373.093 191.798 382.733 191.798C392.373 191.798 400.229 199.408 400.229 208.846C400.229 213.599 397.643 219.643 394.449 225.473C391.603 230.67 388.191 235.839 385.455 239.983C385.099 240.522 384.755 241.043 384.425 241.545C383.624 242.764 381.838 242.746 381.053 241.526C380.536 240.723 379.974 239.859 379.38 238.947C376.87 235.092 373.786 230.357 371.151 225.58C369.519 222.623 368.046 219.628 366.98 216.792C365.917 213.967 365.236 211.244 365.236 208.846Z" fill="#753177"/>
<path d="M441.575 289.745C442.012 290.425 443.006 290.433 443.45 289.757C449.206 281.004 459.107 266.553 459.107 257.549C459.107 248.627 451.673 241.395 442.504 241.395C433.334 241.395 425.9 248.627 425.9 257.549C425.9 266.525 436.151 281.315 441.575 289.745Z" fill="#E9FFF9"/>
<path fill-rule="evenodd" clip-rule="evenodd" d="M442.504 242.288C433.805 242.288 426.794 249.143 426.794 257.549C426.794 259.639 427.395 262.131 428.423 264.867C429.449 267.592 430.878 270.504 432.486 273.42C435.087 278.133 438.124 282.798 440.633 286.651C441.232 287.571 441.801 288.445 442.327 289.262C442.417 289.402 442.617 289.399 442.704 289.267C443.036 288.762 443.381 288.239 443.737 287.7C446.476 283.55 449.846 278.445 452.654 273.318C455.85 267.484 458.214 261.8 458.214 257.549C458.214 249.143 451.204 242.288 442.504 242.288ZM425.008 257.549C425.008 248.111 432.864 240.501 442.504 240.501C452.144 240.501 460.001 248.111 460.001 257.549C460.001 262.302 457.415 268.346 454.221 274.176C451.374 279.373 447.962 284.542 445.227 288.686C444.871 289.225 444.527 289.746 444.197 290.248C443.395 291.467 441.609 291.449 440.824 290.229C440.308 289.426 439.746 288.562 439.151 287.65C436.642 283.795 433.558 279.06 430.922 274.283C429.291 271.326 427.818 268.331 426.751 265.495C425.689 262.67 425.008 259.947 425.008 257.549Z" fill="#753177"/>
<path d="M389.372 208.188C389.372 211.856 386.399 214.829 382.731 214.829C379.063 214.829 376.09 211.856 376.09 208.188C376.09 204.52 379.063 201.547 382.731 201.547C386.399 201.547 389.372 204.52 389.372 208.188Z" fill="url(#paint16_linear)"/>
<path fill-rule="evenodd" clip-rule="evenodd" d="M382.732 202.44C379.557 202.44 376.984 205.013 376.984 208.188C376.984 211.363 379.557 213.936 382.732 213.936C385.906 213.936 388.48 211.363 388.48 208.188C388.48 205.013 385.906 202.44 382.732 202.44ZM375.197 208.188C375.197 204.027 378.571 200.654 382.732 200.654C386.893 200.654 390.266 204.027 390.266 208.188C390.266 212.349 386.893 215.723 382.732 215.723C378.571 215.723 375.197 212.349 375.197 208.188Z" fill="#753177"/>
<path d="M450.142 257.327C450.124 257.356 450.097 257.378 450.065 257.391C446.671 258.746 443.965 261.576 442.659 265.163L442.556 265.455C442.521 265.552 442.383 265.552 442.349 265.455C441.261 261.834 438.333 259.243 434.916 258.052C434.82 258.019 434.756 257.93 434.756 257.829C434.756 257.729 434.819 257.641 434.912 257.607C438.566 256.265 441.47 253.203 442.763 249.361C442.785 249.291 442.884 249.289 442.909 249.359L442.935 249.434C444.019 253.043 446.665 255.88 450.058 257.086" fill="url(#paint17_linear)"/>
<path fill-rule="evenodd" clip-rule="evenodd" d="M443.607 249.65C443.609 249.643 443.611 249.637 443.613 249.63L442.762 249.361L443.608 249.646C443.608 249.647 443.607 249.649 443.607 249.65ZM442.804 251.571C443.979 254.032 445.884 256.035 448.242 257.267C445.773 258.627 443.754 260.754 442.465 263.35C441.208 260.867 439.102 258.981 436.668 257.812C439.295 256.47 441.447 254.267 442.804 251.571ZM442.347 265.455L441.492 265.712C440.502 262.414 437.82 260.011 434.62 258.896C434.173 258.74 433.861 258.317 433.861 257.829C433.861 257.347 434.165 256.929 434.603 256.768C437.987 255.526 440.701 252.678 441.913 249.081C442.201 248.205 443.439 248.187 443.749 249.059L443.783 249.156L443.79 249.177C444.796 252.527 447.244 255.139 450.355 256.244C450.981 256.467 451.265 257.221 450.896 257.804C450.776 257.994 450.6 258.139 450.395 258.221C447.248 259.477 444.721 262.109 443.499 265.466L443.396 265.754C443.08 266.643 441.822 266.643 441.506 265.754L442.347 265.455Z" fill="#753177"/>
<path d="M84.7848 222.919C84.7519 222.972 84.7031 223.012 84.6457 223.035C78.5857 225.474 73.7526 230.568 71.422 237.025L71.2371 237.55C71.1756 237.724 70.9288 237.724 70.8673 237.55C68.9256 231.032 63.6979 226.37 57.596 224.226C57.4247 224.166 57.3086 224.005 57.3086 223.823C57.3086 223.644 57.4218 223.485 57.5898 223.422C64.1138 221.007 69.298 215.495 71.6069 208.581C71.6463 208.455 71.8233 208.452 71.8672 208.577L71.915 208.712C73.8502 215.208 78.5745 220.315 84.6321 222.485" fill="url(#paint18_linear)"/>
<defs>
<linearGradient id="paint0_linear" x1="164.01" y1="128.492" x2="303.478" y2="128.492" gradientUnits="userSpaceOnUse">
<stop stop-color="#FFFF00"/>
<stop offset="1" stop-color="#FB3B6A"/>
</linearGradient>
<linearGradient id="paint1_linear" x1="159.754" y1="131.263" x2="310.638" y2="186.399" gradientUnits="userSpaceOnUse">
<stop stop-color="#FC5981"/>
<stop offset="1" stop-color="#A2269B"/>
</linearGradient>
<linearGradient id="paint2_linear" x1="164.01" y1="131.813" x2="305.692" y2="143.435" gradientUnits="userSpaceOnUse">
<stop stop-color="#FFFF00"/>
<stop offset="1" stop-color="#FC6B66"/>
</linearGradient>
<linearGradient id="paint3_linear" x1="159.582" y1="175.535" x2="299.05" y2="189.371" gradientUnits="userSpaceOnUse">
<stop stop-color="#F0316B"/>
<stop offset="1" stop-color="#93038B"/>
</linearGradient>
<linearGradient id="paint4_linear" x1="133.411" y1="60.4132" x2="359.829" y2="98.2985" gradientUnits="userSpaceOnUse">
<stop stop-color="#FC5981"/>
<stop offset="1" stop-color="#A2269B"/>
</linearGradient>
<linearGradient id="paint5_linear" x1="101.579" y1="28.8438" x2="400.551" y2="78.8691" gradientUnits="userSpaceOnUse">
<stop stop-color="#FC5981"/>
<stop offset="1" stop-color="#A2269B"/>
</linearGradient>
<linearGradient id="paint6_linear" x1="392.758" y1="29.0006" x2="410.271" y2="31.931" gradientUnits="userSpaceOnUse">
<stop stop-color="#FC5981"/>
<stop offset="1" stop-color="#A2269B"/>
</linearGradient>
<linearGradient id="paint7_linear" x1="2.82826" y1="78.7556" x2="25.8254" y2="129.898" gradientUnits="userSpaceOnUse">
<stop stop-color="#FC5981"/>
<stop offset="1" stop-color="#A2269B"/>
</linearGradient>
<linearGradient id="paint8_linear" x1="38.1121" y1="5.08798" x2="112.652" y2="17.0488" gradientUnits="userSpaceOnUse">
<stop stop-color="#FC5981"/>
<stop offset="1" stop-color="#A2269B"/>
</linearGradient>
<linearGradient id="paint9_linear" x1="77.2924" y1="7.97893" x2="93.6654" y2="10.3533" gradientUnits="userSpaceOnUse">
<stop stop-color="#FC5981"/>
<stop offset="1" stop-color="#A2269B"/>
</linearGradient>
<linearGradient id="paint10_linear" x1="361.334" y1="228.891" x2="438.204" y2="239.687" gradientUnits="userSpaceOnUse">
<stop stop-color="#FC5981"/>
<stop offset="1" stop-color="#A2269B"/>
</linearGradient>
<linearGradient id="paint11_linear" x1="378.544" y1="241.319" x2="452.153" y2="276.072" gradientUnits="userSpaceOnUse">
<stop stop-color="#FC5981"/>
<stop offset="1" stop-color="#A2269B"/>
</linearGradient>
<linearGradient id="paint12_linear" x1="379.974" y1="239.243" x2="387.789" y2="242.289" gradientUnits="userSpaceOnUse">
<stop stop-color="#FC5981"/>
<stop offset="1" stop-color="#A2269B"/>
</linearGradient>
<linearGradient id="paint13_linear" x1="376.653" y1="264.702" x2="384.468" y2="267.747" gradientUnits="userSpaceOnUse">
<stop stop-color="#FC5981"/>
<stop offset="1" stop-color="#A2269B"/>
</linearGradient>
<linearGradient id="paint14_linear" x1="387.722" y1="287.946" x2="395.537" y2="290.992" gradientUnits="userSpaceOnUse">
<stop stop-color="#FC5981"/>
<stop offset="1" stop-color="#A2269B"/>
</linearGradient>
<linearGradient id="paint15_linear" x1="439.745" y1="287.946" x2="447.56" y2="290.992" gradientUnits="userSpaceOnUse">
<stop stop-color="#FC5981"/>
<stop offset="1" stop-color="#A2269B"/>
</linearGradient>
<linearGradient id="paint16_linear" x1="376.145" y1="201.656" x2="391.156" y2="204.168" gradientUnits="userSpaceOnUse">
<stop stop-color="#FC5981"/>
<stop offset="1" stop-color="#A2269B"/>
</linearGradient>
<linearGradient id="paint17_linear" x1="434.82" y1="249.441" x2="452.283" y2="252.218" gradientUnits="userSpaceOnUse">
<stop stop-color="#FC5981"/>
<stop offset="1" stop-color="#A2269B"/>
</linearGradient>
<linearGradient id="paint18_linear" x1="57.4239" y1="208.435" x2="88.8191" y2="213.299" gradientUnits="userSpaceOnUse">
<stop stop-color="#FC5981"/>
<stop offset="1" stop-color="#A2269B"/>
</linearGradient>
</defs>
</svg>
