<svg width="80" height="88" viewBox="0 0 80 88" fill="none" xmlns="http://www.w3.org/2000/svg">
<ellipse cx="39.6871" cy="46.6276" rx="27.2463" ry="30.9745" transform="rotate(32.8309 39.6871 46.6276)" stroke="url(#paint0_linear)" stroke-width="1.39742" stroke-linecap="round" stroke-dasharray="4.19 4.19"/>
<path d="M32.7822 5.48739C33.1374 3.88897 34.5551 2.75171 36.1925 2.75171H50.5456C52.7806 2.75171 54.4408 4.82134 53.9559 7.0031L48.0912 33.3945C47.736 34.993 46.3182 36.1302 44.6808 36.1302H30.3278C28.0928 36.1302 26.4326 34.0606 26.9174 31.8788L32.7822 5.48739Z" fill="url(#paint1_linear)"/>
<path d="M57.2763 35.1776C57.6315 33.5792 59.0492 32.4419 60.6867 32.4419H75.0397C77.2747 32.4419 78.9349 34.5115 78.4501 36.6933L72.5853 63.0847C72.2301 64.6831 70.8124 65.8204 69.175 65.8204H54.8219C52.5869 65.8204 50.9267 63.7508 51.4116 61.569L57.2763 35.1776Z" fill="url(#paint2_linear)"/>
<path d="M12.7412 51.5072C13.0964 49.9087 14.5141 48.7715 16.1515 48.7715H30.5046C32.7395 48.7715 34.3998 50.8411 33.9149 53.0229L28.0502 79.4143C27.695 81.0127 26.2772 82.15 24.6398 82.15H10.2867C8.05176 82.15 6.39156 80.0804 6.87639 77.8986L12.7412 51.5072Z" fill="url(#paint3_linear)"/>
<path d="M31.0302 3.73568C31.3854 2.13726 32.8031 1 34.4406 1H48.7936C51.0286 1 52.6888 3.06963 52.204 5.25139L46.3392 31.6428C45.984 33.2412 44.5663 34.3785 42.9289 34.3785H28.5758C26.3408 34.3785 24.6806 32.3089 25.1655 30.1271L31.0302 3.73568Z" fill="#FEEBED" stroke="#17173A" stroke-width="1.39742"/>
<path d="M55.5244 33.4259C55.8796 31.8274 57.2973 30.6902 58.9347 30.6902H73.2878C75.5228 30.6902 77.183 32.7598 76.6981 34.9416L70.8334 61.333C70.4782 62.9314 69.0604 64.0687 67.423 64.0687H53.07C50.835 64.0687 49.1748 61.9991 49.6596 59.8173L55.5244 33.4259Z" fill="#FEEBED" stroke="#17173A" stroke-width="1.39742"/>
<path d="M10.9892 49.7555C11.3444 48.157 12.7621 47.0198 14.3995 47.0198H28.7526C30.9876 47.0198 32.6478 49.0894 32.163 51.2712L26.2982 77.6626C25.943 79.261 24.5253 80.3983 22.8879 80.3983H8.53479C6.29981 80.3983 4.63961 78.3286 5.12444 76.1469L10.9892 49.7555Z" fill="#FEEBED" stroke="#17173A" stroke-width="1.39742"/>
<path d="M68.2237 47.3256L64.8074 38.855L57.8395 47.3256L62.4146 50.2688L68.2237 47.3256Z" fill="#17173A"/>
<path d="M62.2046 51.2737L57.6445 48.2588L61.3318 55.4373L68.0288 48.2588L62.2046 51.2737Z" fill="#17173A"/>
<g clip-path="url(#clip0)">
<path d="M35.9404 15.9202L39.7594 12.7927L42.3206 15.9202L44.5356 14.1062L40.4889 9.16479L34.4549 14.1062L35.9404 15.9202ZM30.7123 17.1712L32.9273 15.3572L34.4128 17.1712L32.1977 18.9851L30.7123 17.1712ZM35.4247 18.4847L37.9859 21.6122L41.8049 18.4847L43.2904 20.2987L37.2563 25.2401L33.2096 20.2987L35.4247 18.4847ZM43.4088 17.1712L45.6239 15.3572L47.1094 17.1712L44.8943 18.9851L43.4088 17.1712Z" fill="#17173A"/>
<path d="M40.7928 17.1711L39.3073 15.3572L37.6269 16.7333L37.4742 16.8584L37.0923 17.1711L38.5778 18.9851L40.7928 17.1711Z" fill="#17173A"/>
</g>
<g clip-path="url(#clip1)">
<path d="M20.0603 56.5818C17.3076 56.5818 14.5878 58.837 14.0086 61.5996C13.8904 62.1634 13.8846 62.7272 13.9467 63.2346C13.9882 63.5729 14.3341 63.7984 14.751 63.6857C15.1117 63.5729 15.4192 63.1782 15.3895 62.7836C15.3038 62.3889 15.3421 61.9379 15.4929 61.4868C15.9745 59.4572 17.9908 57.8785 19.9334 57.9913C21.8759 58.104 23.1623 59.7391 22.6363 61.7124C22.1901 63.5729 20.4103 65.0952 18.5328 65.2079C18.5328 65.2079 17.7907 65.2643 17.4418 65.3207C17.3295 65.3207 17.1491 65.3771 17.0368 65.3771H16.9806L16.9924 65.3207L17.2348 64.7005L18.4673 61.7687C18.5944 61.4305 18.4525 61.0358 18.071 60.9794C17.7576 60.8667 17.3053 61.1486 17.1782 61.4868C17.1782 61.4868 14.0687 68.8163 14.0569 68.8726C13.8736 69.2109 14.0156 69.6056 14.397 69.662H14.4532C14.7104 69.7747 15.1509 69.5492 15.3342 69.2109C15.3342 69.2109 15.3342 69.2109 15.346 69.1545C15.3697 69.0418 15.7953 68.0833 15.7953 68.0833C16.1175 67.3504 16.7975 66.7866 17.5514 66.6738C17.7199 66.6738 18.3497 66.6174 18.3497 66.6174C21.1615 66.3355 23.7039 63.8548 24.0022 61.0922C24.2414 58.6115 22.5765 56.6382 20.0603 56.5818Z" fill="#17173A"/>
<path d="M17.9624 68.1961C17.5367 68.0833 17.0281 68.3652 16.8094 68.8726C16.6025 69.3237 16.7888 69.7747 17.2146 69.8875C17.6404 70.0002 18.1489 69.7183 18.3558 69.2673L18.3676 69.2109C18.5864 68.7035 18.3882 68.3088 17.9624 68.1961Z" fill="#17173A"/>
</g>
<defs>
<linearGradient id="paint0_linear" x1="12.6679" y1="16.1647" x2="74.6336" y2="25.2851" gradientUnits="userSpaceOnUse">
<stop stop-color="#FC5981"/>
<stop offset="1" stop-color="#A2269B"/>
</linearGradient>
<linearGradient id="paint1_linear" x1="26.0932" y1="3.02739" x2="59.0089" y2="7.80063" gradientUnits="userSpaceOnUse">
<stop stop-color="#FC5981"/>
<stop offset="1" stop-color="#A2269B"/>
</linearGradient>
<linearGradient id="paint2_linear" x1="50.5873" y1="32.7176" x2="83.503" y2="37.4908" gradientUnits="userSpaceOnUse">
<stop stop-color="#FC5981"/>
<stop offset="1" stop-color="#A2269B"/>
</linearGradient>
<linearGradient id="paint3_linear" x1="6.05217" y1="49.0472" x2="38.9679" y2="53.8204" gradientUnits="userSpaceOnUse">
<stop stop-color="#FC5981"/>
<stop offset="1" stop-color="#A2269B"/>
</linearGradient>
<clipPath id="clip0">
<rect width="16.3971" height="16.3971" fill="white" transform="matrix(1 0 -0.197144 0.980375 32.3223 9.16479)"/>
</clipPath>
<clipPath id="clip1">
<rect width="11.6861" height="16.0684" fill="white" transform="matrix(1 0 -0.205179 0.978724 14.2188 54.5408)"/>
</clipPath>
</defs>
</svg>
