<svg width="103" height="88" viewBox="0 0 103 88" fill="none" xmlns="http://www.w3.org/2000/svg">
<path d="M48.2301 7.39807C48.7004 5.28152 50.5777 3.77563 52.7458 3.77563H96.9293C99.8887 3.77563 102.087 6.51612 101.445 9.40509L84.9972 83.4203C84.5269 85.5368 82.6496 87.0427 80.4814 87.0427H36.298C33.3386 87.0427 31.1402 84.3022 31.7822 81.4132L48.2301 7.39807Z" fill="url(#paint0_linear)"/>
<path fill-rule="evenodd" clip-rule="evenodd" d="M37.0078 1C34.453 1 32.3819 3.07111 32.3819 5.62595C32.3819 8.18079 34.453 10.2519 37.0078 10.2519H44.2038H56.4368C58.9917 10.2519 61.0628 12.323 61.0628 14.8778C61.0628 17.4327 58.9917 19.5038 56.4368 19.5038H42.1478H21.2796C18.7248 19.5038 16.6536 21.5749 16.6536 24.1297C16.6536 26.6846 18.7248 28.7557 21.2796 28.7557H40.0918H61.0628C63.6176 28.7557 65.6887 30.8268 65.6887 33.3816C65.6887 35.9365 63.6176 38.0076 61.0628 38.0076H59.2124H38.0358H31.4567C28.9018 38.0076 26.8307 40.0787 26.8307 42.6335C26.8307 45.1884 28.9018 47.2595 31.4567 47.2595H35.9799H59.2124H65.6887C68.2436 47.2595 70.3147 49.3306 70.3147 51.8854C70.3147 54.4403 68.2436 56.5114 65.6887 56.5114H33.9239H28.6811C26.1263 56.5114 24.0552 58.5825 24.0552 61.1373C24.0552 63.6922 26.1263 65.7633 28.6811 65.7633L31.8679 65.7633H54.5864L54.5949 65.7633C57.1459 65.7679 59.2124 67.8372 59.2124 70.3892C59.2124 72.9441 57.1413 75.0152 54.5864 75.0152H29.8119H11.1025C8.54767 75.0152 6.47656 77.0863 6.47656 79.6411C6.47656 82.196 8.54767 84.2671 11.1025 84.2671H33.5227H65.6887H77.7061C79.8743 84.2671 81.7516 82.7612 82.2219 80.6446L98.6697 6.62946C99.3117 3.74049 97.1134 1 94.154 1H92.5192H49.9705H37.0078Z" fill="#FEEBED"/>
<path d="M28.6811 65.7633V66.6885H28.6811L28.6811 65.7633ZM31.8679 65.7633V64.8381H31.8679L31.8679 65.7633ZM54.5864 65.7633L54.5873 64.8381H54.5864V65.7633ZM54.5949 65.7633L54.5966 64.8381H54.5958L54.5949 65.7633ZM82.2219 80.6446L81.3188 80.4439L82.2219 80.6446ZM98.6697 6.62946L99.5729 6.83016V6.83016L98.6697 6.62946ZM33.3071 5.62595C33.3071 3.58208 34.9639 1.92519 37.0078 1.92519V0.0748104C33.942 0.0748104 31.4567 2.56014 31.4567 5.62595H33.3071ZM37.0078 9.32671C34.9639 9.32671 33.3071 7.66982 33.3071 5.62595H31.4567C31.4567 8.69175 33.942 11.1771 37.0078 11.1771V9.32671ZM44.2038 9.32671H37.0078V11.1771H44.2038V9.32671ZM56.4368 9.32671H44.2038V11.1771H56.4368V9.32671ZM61.988 14.8778C61.988 11.812 59.5026 9.32671 56.4368 9.32671V11.1771C58.4807 11.1771 60.1376 12.834 60.1376 14.8778H61.988ZM56.4368 20.429C59.5026 20.429 61.988 17.9437 61.988 14.8778H60.1376C60.1376 16.9217 58.4807 18.5786 56.4368 18.5786V20.429ZM42.1478 20.429H56.4368V18.5786H42.1478V20.429ZM21.2796 20.429H42.1478V18.5786H21.2796V20.429ZM17.5788 24.1297C17.5788 22.0859 19.2357 20.429 21.2796 20.429V18.5786C18.2138 18.5786 15.7285 21.0639 15.7285 24.1297H17.5788ZM21.2796 27.8305C19.2357 27.8305 17.5788 26.1736 17.5788 24.1297H15.7285C15.7285 27.1955 18.2138 29.6809 21.2796 29.6809V27.8305ZM40.0918 27.8305H21.2796V29.6809H40.0918V27.8305ZM61.0628 27.8305H40.0918V29.6809H61.0628V27.8305ZM66.6139 33.3816C66.6139 30.3158 64.1286 27.8305 61.0628 27.8305V29.6809C63.1066 29.6809 64.7635 31.3378 64.7635 33.3816H66.6139ZM61.0628 38.9328C64.1286 38.9328 66.6139 36.4474 66.6139 33.3816H64.7635C64.7635 35.4255 63.1066 37.0824 61.0628 37.0824V38.9328ZM59.2124 38.9328H61.0628V37.0824H59.2124V38.9328ZM38.0358 38.9328H59.2124V37.0824H38.0358V38.9328ZM31.4567 38.9328H38.0358V37.0824H31.4567V38.9328ZM27.7559 42.6335C27.7559 40.5897 29.4128 38.9328 31.4567 38.9328V37.0824C28.3909 37.0824 25.9055 39.5677 25.9055 42.6335H27.7559ZM31.4567 46.3343C29.4128 46.3343 27.7559 44.6774 27.7559 42.6335H25.9055C25.9055 45.6993 28.3909 48.1847 31.4567 48.1847V46.3343ZM35.9799 46.3343H31.4567V48.1847H35.9799V46.3343ZM59.2124 46.3343H35.9799V48.1847H59.2124V46.3343ZM65.6887 46.3343H59.2124V48.1847H65.6887V46.3343ZM71.2399 51.8854C71.2399 48.8196 68.7545 46.3343 65.6887 46.3343V48.1847C67.7326 48.1847 69.3895 49.8416 69.3895 51.8854H71.2399ZM65.6887 57.4366C68.7545 57.4366 71.2399 54.9512 71.2399 51.8854H69.3895C69.3895 53.9293 67.7326 55.5862 65.6887 55.5862V57.4366ZM33.9239 57.4366H65.6887V55.5862H33.9239V57.4366ZM28.6811 57.4366H33.9239V55.5862H28.6811V57.4366ZM24.9804 61.1373C24.9804 59.0935 26.6372 57.4366 28.6811 57.4366V55.5862C25.6153 55.5862 23.13 58.0715 23.13 61.1373H24.9804ZM28.6811 64.8381C26.6372 64.8381 24.9804 63.1812 24.9804 61.1373H23.13C23.13 64.2031 25.6153 66.6885 28.6811 66.6885V64.8381ZM31.8679 64.8381L28.6811 64.8381L28.6811 66.6885L31.8679 66.6885L31.8679 64.8381ZM54.5864 64.8381H31.8679V66.6885H54.5864V64.8381ZM54.5958 64.8381L54.5873 64.8381L54.5856 66.6885L54.5941 66.6885L54.5958 64.8381ZM60.1376 70.3892C60.1376 67.3268 57.6578 64.8436 54.5966 64.8381L54.5933 66.6885C56.634 66.6921 58.2872 68.3476 58.2872 70.3892H60.1376ZM54.5864 75.9404C57.6523 75.9404 60.1376 73.455 60.1376 70.3892H58.2872C58.2872 72.4331 56.6303 74.09 54.5864 74.09V75.9404ZM29.8119 75.9404H54.5864V74.09H29.8119V75.9404ZM11.1025 75.9404H29.8119V74.09H11.1025V75.9404ZM7.40175 79.6411C7.40175 77.5972 9.05864 75.9404 11.1025 75.9404V74.09C8.0367 74.09 5.55137 76.5753 5.55137 79.6411H7.40175ZM11.1025 83.3419C9.05863 83.3419 7.40175 81.685 7.40175 79.6411H5.55137C5.55137 82.7069 8.0367 85.1922 11.1025 85.1922V83.3419ZM33.5227 83.3419H11.1025V85.1922H33.5227V83.3419ZM65.6887 83.3419H33.5227V85.1922H65.6887V83.3419ZM77.7061 83.3419H65.6887V85.1922H77.7061V83.3419ZM81.3188 80.4439C80.9425 82.1372 79.4407 83.3419 77.7061 83.3419V85.1922C80.3079 85.1922 82.5607 83.3852 83.1251 80.8453L81.3188 80.4439ZM97.7666 6.42875L81.3188 80.4439L83.1251 80.8453L99.5729 6.83016L97.7666 6.42875ZM94.154 1.92519C96.5215 1.92519 98.2802 4.11758 97.7666 6.42876L99.5729 6.83016C100.343 3.3634 97.7053 0.0748104 94.154 0.0748104V1.92519ZM92.5192 1.92519H94.154V0.0748104H92.5192V1.92519ZM49.9705 1.92519H92.5192V0.0748104H49.9705V1.92519ZM37.0078 1.92519H49.9705V0.0748104H37.0078V1.92519Z" fill="#17173A"/>
<rect x="11.1016" y="1.92529" width="18.5038" height="7.40152" rx="3.70076" fill="url(#paint1_linear)"/>
<rect y="38.9329" width="24.0549" height="7.40152" rx="3.70076" fill="url(#paint2_linear)"/>
<rect x="13.877" y="57.4365" width="7.40152" height="7.40152" rx="3.70076" fill="url(#paint3_linear)"/>
<defs>
<linearGradient id="paint0_linear" x1="30.8319" y1="4.46336" x2="112.944" y2="16.3708" gradientUnits="userSpaceOnUse">
<stop stop-color="#FC5981"/>
<stop offset="1" stop-color="#A2269B"/>
</linearGradient>
<linearGradient id="paint1_linear" x1="11.1787" y1="1.98642" x2="29.4745" y2="9.63974" gradientUnits="userSpaceOnUse">
<stop stop-color="#FC5981"/>
<stop offset="1" stop-color="#A2269B"/>
</linearGradient>
<linearGradient id="paint2_linear" x1="0.100229" y1="38.994" x2="21.6685" y2="50.7229" gradientUnits="userSpaceOnUse">
<stop stop-color="#FC5981"/>
<stop offset="1" stop-color="#A2269B"/>
</linearGradient>
<linearGradient id="paint3_linear" x1="13.9078" y1="57.4977" x2="22.2725" y2="58.8973" gradientUnits="userSpaceOnUse">
<stop stop-color="#FC5981"/>
<stop offset="1" stop-color="#A2269B"/>
</linearGradient>
</defs>
</svg>
