<svg width="90" height="89" viewBox="0 0 90 89" fill="none" xmlns="http://www.w3.org/2000/svg">
<path d="M13.963 63.3945L15.0603 58.2929C15.6868 55.3802 19.345 54.3963 21.3481 56.6018C22.1778 57.5154 22.4913 58.7857 22.1818 59.9804L20.444 66.6886C20.2196 67.555 19.7667 68.3453 19.1326 68.977L9.32057 78.7518C7.99394 80.0734 5.83721 80.0362 4.55692 78.6697C3.34337 77.3744 3.36397 75.3535 4.60368 74.0832L12.6531 65.8352C13.3109 65.1612 13.7649 64.3152 13.963 63.3945Z" fill="url(#paint0_linear)"/>
<path d="M50.1301 20.8925C50.1301 26.4955 45.588 31.0376 39.985 31.0376C34.382 31.0376 29.8398 26.4955 29.8398 20.8925C29.8398 15.2895 34.382 10.7473 39.985 10.7473C45.588 10.7473 50.1301 15.2895 50.1301 20.8925Z" fill="url(#paint1_linear)"/>
<path d="M28.0181 35.3423L16.224 48.0048C14.4686 49.8895 14.4321 52.7993 16.1396 54.7275L25.9971 65.8587C26.8069 66.7731 27.2539 67.9522 27.2539 69.1736V76.6022C27.2539 78.4638 28.7631 79.9729 30.6247 79.9729C32.4863 79.9729 33.9954 78.4638 33.9954 76.6022V65.901C33.9954 64.8897 33.6887 63.9021 33.1159 63.0687L28.8252 56.8264C27.5247 54.9343 27.6799 52.3997 29.2015 50.6804L36.3553 42.5976C37.3043 41.5253 38.6675 40.9114 40.0995 40.9114H46.2757C46.8589 40.9114 47.4377 40.8093 47.9859 40.6098L56.4447 37.5308C58.2387 36.8778 59.1777 34.9071 58.5548 33.1025C57.931 31.2952 55.9717 30.3236 54.1555 30.9208L46.3132 33.4999C45.8091 33.6656 45.2818 33.7501 44.7512 33.7501H31.6769C30.2892 33.7501 28.9639 34.3268 28.0181 35.3423Z" fill="url(#paint2_linear)"/>
<path d="M52 43.6665C52 61.6158 66.3269 76.1665 84 76.1665V11.1665C66.3269 11.1665 52 25.7172 52 43.6665Z" fill="#E9FFF9"/>
<path fill-rule="evenodd" clip-rule="evenodd" d="M84 13.6665C67.744 13.6665 54.5 27.0613 54.5 43.6665C54.5 60.2717 67.744 73.6665 84 73.6665C85.3807 73.6665 86.5 74.7858 86.5 76.1665C86.5 77.5472 85.3807 78.6665 84 78.6665C64.9098 78.6665 49.5 62.9598 49.5 43.6665C49.5 24.3732 64.9098 8.6665 84 8.6665C85.3807 8.6665 86.5 9.78579 86.5 11.1665C86.5 12.5472 85.3807 13.6665 84 13.6665Z" fill="#753177"/>
<path d="M11.5762 59.8134L14.1717 47.7471L18.4746 52.4848C19.6081 53.7329 20.0363 55.4682 19.6135 57.1002L18.0573 63.1076C17.8329 63.974 17.38 64.7643 16.7459 65.396L6.93385 75.1708C5.60722 76.4924 3.45049 76.4552 2.1702 75.0887C0.956651 73.7934 0.977255 71.7724 2.21696 70.5021L10.2664 62.2542C10.9241 61.5802 11.3782 60.7341 11.5762 59.8134Z" fill="#FEEBED"/>
<path fill-rule="evenodd" clip-rule="evenodd" d="M13.6034 45.634L19.2149 51.8126C20.5751 53.3103 21.0889 55.3926 20.5816 57.3511L19.0254 63.3585C18.756 64.3982 18.2126 65.3465 17.4517 66.1045L7.63961 75.8794C5.9132 77.5992 3.10655 77.5508 1.44045 75.7725C-0.138812 74.0869 -0.112 71.4569 1.5013 69.8038L9.55072 61.5559C10.0769 61.0167 10.4402 60.3398 10.5986 59.6033L13.6034 45.634ZM14.7401 49.8604L12.5539 60.0238C12.3162 61.1287 11.7714 62.1439 10.9821 62.9527L2.93263 71.2007C2.06651 72.0882 2.05211 73.5001 2.89997 74.4051C3.79444 75.3598 5.30124 75.3858 6.22809 74.4625L16.0401 64.6876C16.5474 64.1823 16.9097 63.5501 17.0893 62.8569L18.6455 56.8496C18.9837 55.5439 18.6411 54.1557 17.7343 53.1573L14.7401 49.8604Z" fill="#753177"/>
<path d="M47.7434 17.3117C47.7434 22.9147 43.2013 27.4568 37.5983 27.4568C31.9953 27.4568 27.4531 22.9147 27.4531 17.3117C27.4531 11.7086 31.9953 7.1665 37.5983 7.1665C43.2013 7.1665 47.7434 11.7086 47.7434 17.3117Z" fill="#FEEBED"/>
<path fill-rule="evenodd" clip-rule="evenodd" d="M37.5983 25.4568C42.0967 25.4568 45.7434 21.8101 45.7434 17.3117C45.7434 12.8132 42.0967 9.1665 37.5983 9.1665C33.0998 9.1665 29.4531 12.8132 29.4531 17.3117C29.4531 21.8101 33.0998 25.4568 37.5983 25.4568ZM37.5983 27.4568C43.2013 27.4568 47.7434 22.9147 47.7434 17.3117C47.7434 11.7086 43.2013 7.1665 37.5983 7.1665C31.9953 7.1665 27.4531 11.7086 27.4531 17.3117C27.4531 22.9147 31.9953 27.4568 37.5983 27.4568Z" fill="#753177"/>
<path d="M24.742 32.7167L15.6948 42.4301C12.8861 45.4457 12.8276 50.1014 15.5597 53.1865L23.6108 62.2779C24.4206 63.1923 24.8676 64.3714 24.8676 65.5928V73.0214C24.8676 74.883 26.3767 76.3921 28.2384 76.3921C30.1 76.3921 31.6091 74.883 31.6091 73.0214V62.3202C31.6091 61.3089 31.3024 60.3213 30.7296 59.4879L26.4389 53.2456C25.1384 51.3535 25.2936 48.8189 26.8152 47.0996L33.969 39.0168C34.918 37.9445 36.2812 37.3306 37.7131 37.3306H43.8893C44.4726 37.3306 45.0514 37.2285 45.5995 37.029L54.0584 33.95C55.8523 33.297 56.7914 31.3263 56.1685 29.5216C55.5447 27.7144 53.5854 26.7427 51.7691 27.34L43.9269 29.919C43.4228 30.0848 42.8955 30.1693 42.3649 30.1693H30.5961C28.3758 30.1693 26.2553 31.092 24.742 32.7167Z" fill="#FEEBED"/>
<path fill-rule="evenodd" clip-rule="evenodd" d="M55.2232 29.8479C54.7777 28.5573 53.3786 27.8635 52.0815 28.29L44.2393 30.869C43.6344 31.0679 43.0016 31.1693 42.3649 31.1693H30.5961C28.6533 31.1693 26.7979 31.9767 25.4738 33.3983L16.4265 43.1117C13.9689 45.7503 13.9178 49.8241 16.3084 52.5235L24.3595 61.6149C25.3311 62.7122 25.8676 64.1272 25.8676 65.5928V73.0214C25.8676 74.3307 26.929 75.3921 28.2384 75.3921C29.5477 75.3921 30.6091 74.3307 30.6091 73.0214V62.3202C30.6091 61.5111 30.3638 60.7211 29.9055 60.0544L25.6148 53.8121C24.0541 51.5416 24.2404 48.5 26.0664 46.4368L33.2201 38.354C34.359 37.0673 35.9948 36.3306 37.7131 36.3306H43.8893C44.356 36.3306 44.819 36.2489 45.2575 36.0893L53.7163 33.0103C54.9975 32.544 55.6681 31.1367 55.2232 29.8479ZM51.4567 26.3901C53.7922 25.6221 56.3116 26.8714 57.1138 29.1954C57.9148 31.5159 56.7072 34.0501 54.4004 34.8897L45.9416 37.9687C45.2838 38.2081 44.5893 38.3306 43.8893 38.3306H37.7131C36.5676 38.3306 35.477 38.8217 34.7178 39.6795L27.5641 47.7624C26.3467 49.1378 26.2226 51.1655 27.263 52.6792L31.5537 58.9215C32.2411 59.9216 32.6091 61.1066 32.6091 62.3202V73.0214C32.6091 75.4353 30.6522 77.3921 28.2384 77.3921C25.8245 77.3921 23.8676 75.4353 23.8676 73.0214V65.5928C23.8676 64.6157 23.51 63.6724 22.8622 62.9409L14.8111 53.8495C11.7375 50.3788 11.8033 45.141 14.963 41.7486L24.0103 32.0352C25.7127 30.2074 28.0982 29.1693 30.5961 29.1693H42.3649C42.7894 29.1693 43.2112 29.1017 43.6145 28.9691L51.4567 26.3901Z" fill="#753177"/>
<defs>
<linearGradient id="paint0_linear" x1="3.66016" y1="55.3997" x2="27.1438" y2="73.3976" gradientUnits="userSpaceOnUse">
<stop stop-color="#FC5981"/>
<stop offset="1" stop-color="#A3269B"/>
</linearGradient>
<linearGradient id="paint1_linear" x1="29.8398" y1="10.7473" x2="50.1301" y2="31.0376" gradientUnits="userSpaceOnUse">
<stop stop-color="#FC5981"/>
<stop offset="1" stop-color="#A3269B"/>
</linearGradient>
<linearGradient id="paint2_linear" x1="14.8828" y1="30.7449" x2="63.7851" y2="74.3189" gradientUnits="userSpaceOnUse">
<stop stop-color="#FC5981"/>
<stop offset="1" stop-color="#A3269B"/>
</linearGradient>
</defs>
</svg>
