<svg width="90" height="89" viewBox="0 0 90 89" fill="none" xmlns="http://www.w3.org/2000/svg">
<path d="M87 22.3265C87 32.5745 79.272 41.1425 69.192 42.3185C69.024 42.3185 69.024 42.3185 68.856 42.3185C65.832 42.9905 63.816 44.8385 62.304 47.3585C60.792 49.8785 60.12 53.4065 60.12 57.2705V57.6065V57.7745V57.9425C60.12 57.9425 60.12 57.9425 60.12 58.1105V58.2785C59.784 73.7345 47.184 86.1665 31.56 86.1665C15.768 86.1665 3 73.3985 3 57.6065C3 41.9825 15.768 29.2145 31.392 29.0465H31.56C35.592 29.0465 38.952 28.2065 41.64 26.8625C44.328 25.3505 46.008 23.3345 46.68 20.3105C46.68 20.1425 46.68 20.1425 46.68 19.9745C48.024 9.8945 56.592 2.1665 66.84 2.1665C77.928 2.1665 87 11.2385 87 22.3265Z" fill="#E9FFF9"/>
<path fill-rule="evenodd" clip-rule="evenodd" d="M68.856 42.3185H69.192C79.272 41.1425 87 32.5745 87 22.3265C87 11.2385 77.928 2.1665 66.84 2.1665C56.592 2.1665 48.024 9.8945 46.68 19.9745V20.3105C46.008 23.3345 44.328 25.3505 41.64 26.8625C38.952 28.2065 35.592 29.0465 31.56 29.0465H31.392C15.768 29.2145 3 41.9825 3 57.6065C3 73.3985 15.768 86.1665 31.56 86.1665C47.184 86.1665 59.784 73.7345 60.12 58.2785V57.2705C60.12 53.4065 60.792 49.8785 62.304 47.3585C63.816 44.8385 65.832 42.9905 68.856 42.3185ZM58.12 58.2564V57.2705C58.12 53.2307 58.8135 49.2887 60.589 46.3295C62.3 43.4779 64.7227 41.1882 68.4221 40.3661L68.6365 40.3185H69.0718C78.0966 39.2088 85 31.5135 85 22.3265C85 12.3431 76.8234 4.1665 66.84 4.1665C57.6642 4.1665 49.9503 11.0607 48.68 20.1106V20.53L48.6324 20.7444C47.8208 24.3965 45.7341 26.8542 42.6205 28.6057L42.578 28.6296L42.5344 28.6514C39.5435 30.1468 35.8731 31.0465 31.56 31.0465H31.4029C16.8673 31.2085 5 43.0947 5 57.6065C5 72.2939 16.8726 84.1665 31.56 84.1665C46.0871 84.1665 57.7964 72.6172 58.12 58.2564Z" fill="#753177"/>
<path d="M32.24 76.6465C42.3137 76.6465 50.48 68.4802 50.48 58.4065C50.48 48.3328 42.3137 40.1665 32.24 40.1665C22.1663 40.1665 14 48.3328 14 58.4065C14 68.4802 22.1663 76.6465 32.24 76.6465Z" fill="url(#paint0_linear)"/>
<path d="M30.24 73.6465C40.3137 73.6465 48.48 65.4802 48.48 55.4065C48.48 45.3328 40.3137 37.1665 30.24 37.1665C20.1663 37.1665 12 45.3328 12 55.4065C12 65.4802 20.1663 73.6465 30.24 73.6465Z" fill="#FEEBED"/>
<path fill-rule="evenodd" clip-rule="evenodd" d="M30.24 71.6465C39.2091 71.6465 46.48 64.3756 46.48 55.4065C46.48 46.4374 39.2091 39.1665 30.24 39.1665C21.2709 39.1665 14 46.4374 14 55.4065C14 64.3756 21.2709 71.6465 30.24 71.6465ZM48.48 55.4065C48.48 65.4802 40.3137 73.6465 30.24 73.6465C20.1663 73.6465 12 65.4802 12 55.4065C12 45.3328 20.1663 37.1665 30.24 37.1665C40.3137 37.1665 48.48 45.3328 48.48 55.4065Z" fill="#753177"/>
<path d="M66.64 32.4465C72.5163 32.4465 77.28 27.6828 77.28 21.8065C77.28 15.9302 72.5163 11.1665 66.64 11.1665C60.7637 11.1665 56 15.9302 56 21.8065C56 27.6828 60.7637 32.4465 66.64 32.4465Z" fill="url(#paint1_linear)"/>
<path d="M64.64 29.4465C70.5163 29.4465 75.28 24.6828 75.28 18.8065C75.28 12.9302 70.5163 8.1665 64.64 8.1665C58.7637 8.1665 54 12.9302 54 18.8065C54 24.6828 58.7637 29.4465 64.64 29.4465Z" fill="#FEEBED"/>
<path fill-rule="evenodd" clip-rule="evenodd" d="M64.64 27.4465C69.4117 27.4465 73.28 23.5782 73.28 18.8065C73.28 14.0348 69.4117 10.1665 64.64 10.1665C59.8683 10.1665 56 14.0348 56 18.8065C56 23.5782 59.8683 27.4465 64.64 27.4465ZM75.28 18.8065C75.28 24.6828 70.5163 29.4465 64.64 29.4465C58.7637 29.4465 54 24.6828 54 18.8065C54 12.9302 58.7637 8.1665 64.64 8.1665C70.5163 8.1665 75.28 12.9302 75.28 18.8065Z" fill="#753177"/>
<defs>
<linearGradient id="paint0_linear" x1="14" y1="40.1665" x2="50.48" y2="76.6465" gradientUnits="userSpaceOnUse">
<stop stop-color="#FC5981"/>
<stop offset="1" stop-color="#A3269B"/>
</linearGradient>
<linearGradient id="paint1_linear" x1="56" y1="11.1665" x2="77.28" y2="32.4465" gradientUnits="userSpaceOnUse">
<stop stop-color="#FC5981"/>
<stop offset="1" stop-color="#A3269B"/>
</linearGradient>
</defs>
</svg>
