<svg width="21" height="15" viewBox="0 0 21 15" fill="none" xmlns="http://www.w3.org/2000/svg">
<path d="M1.7466 0.5001C1.61409 0.498226 1.48253 0.522707 1.35956 0.572121C1.23659 0.621535 1.12467 0.694895 1.0303 0.78794C0.935932 0.880984 0.860995 0.991857 0.809848 1.11411C0.7587 1.23637 0.732361 1.36757 0.732361 1.5001C0.732361 1.63263 0.7587 1.76383 0.809848 1.88609C0.860995 2.00834 0.935932 2.11922 1.0303 2.21226C1.12467 2.3053 1.23659 2.37867 1.35956 2.42808C1.48253 2.47749 1.61409 2.50197 1.7466 2.5001H19.7466C19.8791 2.50197 20.0107 2.47749 20.1336 2.42808C20.2566 2.37867 20.3685 2.3053 20.4629 2.21226C20.5573 2.11922 20.6322 2.00834 20.6834 1.88609C20.7345 1.76383 20.7608 1.63263 20.7608 1.5001C20.7608 1.36757 20.7345 1.23637 20.6834 1.11411C20.6322 0.991857 20.5573 0.880984 20.4629 0.78794C20.3685 0.694895 20.2566 0.621535 20.1336 0.572121C20.0107 0.522707 19.8791 0.498226 19.7466 0.5001H1.7466ZM1.7466 6.5001C1.61409 6.49823 1.48253 6.52271 1.35956 6.57212C1.23659 6.62153 1.12467 6.6949 1.0303 6.78794C0.935932 6.88098 0.860995 6.99186 0.809848 7.11411C0.7587 7.23637 0.732361 7.36758 0.732361 7.5001C0.732361 7.63263 0.7587 7.76383 0.809848 7.88609C0.860995 8.00834 0.935932 8.11922 1.0303 8.21226C1.12467 8.3053 1.23659 8.37867 1.35956 8.42808C1.48253 8.47749 1.61409 8.50197 1.7466 8.5001H19.7466C19.8791 8.50197 20.0107 8.47749 20.1336 8.42808C20.2566 8.37867 20.3685 8.3053 20.4629 8.21226C20.5573 8.11922 20.6322 8.00834 20.6834 7.88609C20.7345 7.76383 20.7608 7.63263 20.7608 7.5001C20.7608 7.36758 20.7345 7.23637 20.6834 7.11411C20.6322 6.99186 20.5573 6.88098 20.4629 6.78794C20.3685 6.6949 20.2566 6.62153 20.1336 6.57212C20.0107 6.52271 19.8791 6.49823 19.7466 6.5001H1.7466ZM1.7466 12.5001C1.61409 12.4982 1.48253 12.5227 1.35956 12.5721C1.23659 12.6215 1.12467 12.6949 1.0303 12.7879C0.935932 12.881 0.860995 12.9919 0.809848 13.1141C0.7587 13.2364 0.732361 13.3676 0.732361 13.5001C0.732361 13.6326 0.7587 13.7638 0.809848 13.8861C0.860995 14.0083 0.935932 14.1192 1.0303 14.2123C1.12467 14.3053 1.23659 14.3787 1.35956 14.4281C1.48253 14.4775 1.61409 14.502 1.7466 14.5001H19.7466C19.8791 14.502 20.0107 14.4775 20.1336 14.4281C20.2566 14.3787 20.3685 14.3053 20.4629 14.2123C20.5573 14.1192 20.6322 14.0083 20.6834 13.8861C20.7345 13.7638 20.7608 13.6326 20.7608 13.5001C20.7608 13.3676 20.7345 13.2364 20.6834 13.1141C20.6322 12.9919 20.5573 12.881 20.4629 12.7879C20.3685 12.6949 20.2566 12.6215 20.1336 12.5721C20.0107 12.5227 19.8791 12.4982 19.7466 12.5001H1.7466Z" fill="#753177"/>
</svg>
