<svg width="90" height="89" viewBox="0 0 90 89" fill="none" xmlns="http://www.w3.org/2000/svg">
<path fill-rule="evenodd" clip-rule="evenodd" d="M57.6272 5.28782L59.8638 7.52442C61.5453 9.20592 61.6953 11.8286 61.0926 14.1289C60.004 18.2843 61.088 22.8908 64.3447 26.1475C67.6014 29.4041 72.2079 30.4882 76.3632 29.3995C78.6636 28.7969 81.2862 28.9469 82.9678 30.6284L85.2043 32.865C86.3759 34.0366 86.3759 35.9361 85.2043 37.1076L36.414 85.898C35.2424 87.0696 33.3429 87.0696 32.1713 85.898L29.5235 83.2502C27.9515 81.6782 27.7131 79.2656 28.1562 77.0869C28.9639 73.1149 27.8275 68.8262 24.7467 65.7455C21.666 62.6647 17.3772 61.5282 13.4052 62.336C11.2266 62.779 8.814 62.5407 7.24196 60.9686L4.59417 58.3208C3.4226 57.1493 3.4226 55.2498 4.59417 54.0782L53.3845 5.28783C54.5561 4.11625 56.4556 4.11625 57.6272 5.28782Z" fill="url(#paint0_linear)"/>
<path fill-rule="evenodd" clip-rule="evenodd" d="M55.6272 2.28782L57.8638 4.52442C59.5453 6.20592 59.6953 8.82856 59.0926 11.1289C58.004 15.2843 59.088 19.8908 62.3447 23.1475C65.6014 26.4041 70.2079 27.4882 74.3632 26.3995C76.6636 25.7969 79.2862 25.9469 80.9678 27.6284L83.2043 29.865C84.3759 31.0366 84.3759 32.9361 83.2043 34.1076L34.414 82.898C33.2424 84.0696 31.3429 84.0696 30.1713 82.898L27.5235 80.2502C25.9515 78.6782 25.7131 76.2656 26.1562 74.0869C26.9639 70.1149 25.8275 65.8262 22.7467 62.7455C19.666 59.6647 15.3772 58.5282 11.4052 59.336C9.22661 59.779 6.814 59.5407 5.24196 57.9686L2.59417 55.3208C1.4226 54.1493 1.4226 52.2498 2.59417 51.0782L51.3845 2.28783C52.5561 1.11625 54.4556 1.11625 55.6272 2.28782Z" fill="white"/>
<path fill-rule="evenodd" clip-rule="evenodd" d="M56.4496 5.93863L54.213 3.70204C53.8224 3.31151 53.1893 3.31151 52.7988 3.70204L4.00839 52.4924C3.61786 52.8829 3.61786 53.5161 4.00839 53.9066L6.65617 56.5544C7.54744 57.4457 9.13617 57.7565 11.0067 57.3761C15.6082 56.4403 20.5859 57.7562 24.1609 61.3312C27.736 64.9063 29.0519 69.8839 28.1161 74.4855C27.7357 76.356 28.0465 77.9447 28.9378 78.836L31.5855 81.4838C31.9761 81.8743 32.6092 81.8743 32.9998 81.4838L81.7901 32.6934C82.1807 32.3029 82.1807 31.6697 81.7901 31.2792L79.5535 29.0426C78.601 28.0901 76.8631 27.8121 74.8701 28.3343C70.0558 29.5955 64.71 28.3412 60.9305 24.5617C57.151 20.7822 55.8967 15.4364 57.1579 10.6221C57.68 8.62911 57.4021 6.89113 56.4496 5.93863ZM57.8638 4.52442L55.6272 2.28782C54.4556 1.11625 52.5561 1.11625 51.3845 2.28783L2.59417 51.0782C1.4226 52.2498 1.4226 54.1493 2.59417 55.3208L5.24196 57.9686C6.814 59.5407 9.22661 59.779 11.4052 59.336C15.3772 58.5282 19.666 59.6647 22.7467 62.7455C25.8275 65.8262 26.9639 70.1149 26.1562 74.0869C25.7131 76.2656 25.9515 78.6782 27.5235 80.2502L30.1713 82.898C31.3429 84.0696 33.2424 84.0696 34.414 82.898L83.2043 34.1076C84.3759 32.9361 84.3759 31.0366 83.2043 29.865L80.9678 27.6284C79.2862 25.9469 76.6636 25.7969 74.3632 26.3995C70.2079 27.4882 65.6014 26.4041 62.3447 23.1475C59.088 19.8908 58.004 15.2843 59.0926 11.1289C59.6953 8.82856 59.5453 6.20592 57.8638 4.52442Z" fill="#753177"/>
<path fill-rule="evenodd" clip-rule="evenodd" d="M39.9842 17.6786C40.7653 16.8975 42.0316 16.8975 42.8127 17.6786L44.896 19.7619C45.677 20.5429 45.677 21.8093 44.896 22.5903C44.1149 23.3714 42.8486 23.3714 42.0676 22.5903L39.9842 20.507C39.2032 19.7259 39.2032 18.4596 39.9842 17.6786ZM46.2342 23.9286C47.0153 23.1475 48.2816 23.1475 49.0627 23.9286L53.2293 28.0952C54.0104 28.8763 54.0104 30.1426 53.2293 30.9237C52.4483 31.7047 51.1819 31.7047 50.4009 30.9237L46.2342 26.757C45.4532 25.9759 45.4532 24.7096 46.2342 23.9286ZM54.5676 32.2619C55.3486 31.4808 56.6149 31.4808 57.396 32.2619L61.5627 36.4286C62.3437 37.2096 62.3437 38.4759 61.5627 39.257C60.7816 40.038 59.5153 40.038 58.7342 39.257L54.5676 35.0903C53.7865 34.3093 53.7865 33.0429 54.5676 32.2619ZM62.9009 40.5952C63.6819 39.8142 64.9483 39.8142 65.7293 40.5952L67.8127 42.6786C68.5937 43.4596 68.5937 44.7259 67.8127 45.507C67.0316 46.288 65.7653 46.288 64.9842 45.507L62.9009 43.4237C62.1198 42.6426 62.1198 41.3763 62.9009 40.5952Z" fill="#753177"/>
<path fill-rule="evenodd" clip-rule="evenodd" d="M58.5556 50.1803C57.7551 49.13 56.1746 49.13 55.3741 50.1803L43.413 65.8753C42.4097 67.1917 43.3485 69.0876 45.0037 69.0876H47.4473V84.2828C47.4473 85.9397 48.7905 87.2828 50.4473 87.2828H63.4824C65.1392 87.2828 66.4824 85.9397 66.4824 84.2828V69.0876H68.926C70.5812 69.0876 71.52 67.1918 70.5168 65.8753L58.5556 50.1803Z" fill="url(#paint1_linear)"/>
<path fill-rule="evenodd" clip-rule="evenodd" d="M49.4473 67.0876V84.2828C49.4473 84.8351 49.895 85.2828 50.4473 85.2828H63.4824C64.0347 85.2828 64.4824 84.8351 64.4824 84.2828V67.0876H68.926L56.9649 51.3926L45.0037 67.0876L49.4473 67.0876ZM45.0037 69.0876C43.3485 69.0876 42.4097 67.1917 43.413 65.8753L55.3741 50.1803C56.1746 49.13 57.7551 49.13 58.5556 50.1803L70.5168 65.8753C71.52 67.1918 70.5812 69.0876 68.926 69.0876H66.4824V84.2828C66.4824 85.9397 65.1392 87.2828 63.4824 87.2828H50.4473C48.7905 87.2828 47.4473 85.9397 47.4473 84.2828V69.0876H45.0037Z" fill="#753177"/>
<defs>
<linearGradient id="paint0_linear" x1="55.5059" y1="3.1665" x2="74.2234" y2="78.0366" gradientUnits="userSpaceOnUse">
<stop stop-color="#FC5981"/>
<stop offset="1" stop-color="#A3269B"/>
</linearGradient>
<linearGradient id="paint1_linear" x1="43.1164" y1="49.7055" x2="75.0782" y2="53.6476" gradientUnits="userSpaceOnUse">
<stop stop-color="#FC5981"/>
<stop offset="1" stop-color="#A2269B"/>
</linearGradient>
</defs>
</svg>
