<svg width="15" height="14" viewBox="0 0 15 14" fill="none" xmlns="http://www.w3.org/2000/svg">
<path d="M3.625 14V4.65625H0.71875V14H3.625ZM2.15625 3.40625C3.09375 3.40625 3.84375 2.625 3.84375 1.6875C3.84375 0.78125 3.09375 0.03125 2.15625 0.03125C1.25 0.03125 0.5 0.78125 0.5 1.6875C0.5 2.625 1.25 3.40625 2.15625 3.40625ZM14.4688 14H14.5V8.875C14.5 6.375 13.9375 4.4375 11 4.4375C9.59375 4.4375 8.65625 5.21875 8.25 5.9375H8.21875V4.65625H5.4375V14H8.34375V9.375C8.34375 8.15625 8.5625 7 10.0625 7C11.5625 7 11.5938 8.375 11.5938 9.46875V14H14.4688Z" fill="#FB3767"/>
</svg>
