<svg width="84" height="77" viewBox="0 0 84 77" fill="none" xmlns="http://www.w3.org/2000/svg">
<path d="M84 38.6665C84 58.2726 68.1061 74.1665 48.5 74.1665C28.8939 74.1665 13 58.2726 13 38.6665C13 19.0604 28.8939 3.1665 48.5 3.1665C68.1061 3.1665 84 19.0604 84 38.6665Z" fill="url(#paint0_linear)"/>
<path d="M82 35.6665C82 55.2726 66.1061 71.1665 46.5 71.1665C26.8939 71.1665 11 55.2726 11 35.6665C11 16.0604 26.8939 0.166504 46.5 0.166504C66.1061 0.166504 82 16.0604 82 35.6665Z" fill="white"/>
<path fill-rule="evenodd" clip-rule="evenodd" d="M46.5 69.1665C65.0015 69.1665 80 54.168 80 35.6665C80 17.165 65.0015 2.1665 46.5 2.1665C27.9985 2.1665 13 17.165 13 35.6665C13 54.168 27.9985 69.1665 46.5 69.1665ZM46.5 71.1665C66.1061 71.1665 82 55.2726 82 35.6665C82 16.0604 66.1061 0.166504 46.5 0.166504C26.8939 0.166504 11 16.0604 11 35.6665C11 55.2726 26.8939 71.1665 46.5 71.1665Z" fill="#753177"/>
<path fill-rule="evenodd" clip-rule="evenodd" d="M13.8671 75.9266C14.6675 76.9769 16.2481 76.9769 17.0485 75.9266L30.5031 58.2722C31.5063 56.9557 30.5675 55.0599 28.9124 55.0599L25.8637 55.0599L25.8637 38.1664C25.8637 36.5095 24.5206 35.1664 22.8637 35.1664L8.05205 35.1664C6.3952 35.1664 5.05205 36.5095 5.05205 38.1664L5.05205 55.0599L2.00331 55.0599C0.348122 55.0599 -0.590677 56.9557 0.412607 58.2722L13.8671 75.9266Z" fill="url(#paint1_linear)"/>
<path fill-rule="evenodd" clip-rule="evenodd" d="M23.8637 57.0599L23.8637 38.1664C23.8637 37.6141 23.416 37.1664 22.8637 37.1664L8.05205 37.1664C7.49977 37.1664 7.05205 37.6141 7.05205 38.1664L7.05205 57.0599L2.00331 57.0599L15.4578 74.7144L28.9124 57.0599L23.8637 57.0599ZM28.9124 55.0599C30.5675 55.0599 31.5063 56.9557 30.5031 58.2722L17.0485 75.9266C16.2481 76.9769 14.6675 76.9769 13.8671 75.9266L0.412607 58.2722C-0.590677 56.9557 0.348122 55.0599 2.00331 55.0599L5.05205 55.0599L5.05205 38.1664C5.05205 36.5095 6.3952 35.1664 8.05205 35.1664L22.8637 35.1664C24.5206 35.1664 25.8637 36.5095 25.8637 38.1664L25.8637 55.0599L28.9124 55.0599Z" fill="#753177"/>
<path d="M44.832 11.1665C44.2798 11.1665 43.832 11.6142 43.832 12.1665V15.185C43.832 15.6881 43.4589 16.1083 42.9684 16.2199C39.418 17.027 34.082 20.2226 34.082 27.2011C34.082 41.4557 54.2337 34.1065 54.2337 44.7975C54.2337 48.3611 52.7154 51.7011 45.9987 51.7011C39.9951 51.7011 37.7998 47.4318 37.4013 44.4576C37.328 43.9102 36.8843 43.462 36.332 43.462H34.0689C33.4899 43.462 33.0295 43.9559 33.0987 44.5307C34.0662 52.5724 39.4172 54.9509 43.0154 55.7675C43.4868 55.8745 43.832 56.2853 43.832 56.7687V59.1665C43.832 59.7188 44.2798 60.1665 44.832 60.1665H47.1654C47.7177 60.1665 48.1654 59.7188 48.1654 59.1665V56.8676C48.1654 56.3419 48.5715 55.9091 49.0904 55.8246C52.6612 55.2432 58.9987 52.4982 58.9987 44.3537C58.9987 37.0037 53.147 34.9975 47.5137 33.6611C42.9637 32.5475 38.847 31.4347 38.847 26.7574C38.847 24.7529 39.7145 20.2975 46.2145 20.2975C50.4122 20.2975 52.582 22.7626 53.4033 25.9425C53.5241 26.4103 53.9331 26.7574 54.4161 26.7574H56.6155C57.272 26.7574 57.7518 26.1348 57.5593 25.5071C56.2792 21.3334 54.1336 17.6852 48.9885 16.4612C48.5167 16.349 48.1654 15.9376 48.1654 15.4526V12.1665C48.1654 11.6142 47.7177 11.1665 47.1654 11.1665H44.832Z" fill="#753177"/>
<defs>
<linearGradient id="paint0_linear" x1="13" y1="3.1665" x2="84" y2="74.1665" gradientUnits="userSpaceOnUse">
<stop stop-color="#FC5981"/>
<stop offset="1" stop-color="#A3269B"/>
</linearGradient>
<linearGradient id="paint1_linear" x1="30.7872" y1="76.3712" x2="-4.58237" y2="71.9674" gradientUnits="userSpaceOnUse">
<stop stop-color="#FC5981"/>
<stop offset="1" stop-color="#A2269B"/>
</linearGradient>
</defs>
</svg>
