<svg width="12" height="10" viewBox="0 0 12 10" fill="none" xmlns="http://www.w3.org/2000/svg">
<path d="M10.1034 2.78281C10.5312 2.46197 10.9162 2.07697 11.2156 1.62779C10.8306 1.79891 10.3814 1.92724 9.93226 1.97002C10.4028 1.69196 10.7451 1.26418 10.9162 0.729447C10.4884 0.986118 9.99643 1.17862 9.50448 1.28557C9.07669 0.836393 8.49919 0.579723 7.85751 0.579723C6.61694 0.579723 5.61164 1.58502 5.61164 2.82559C5.61164 2.9967 5.63303 3.16782 5.67581 3.33893C3.81495 3.23198 2.14659 2.33364 1.03436 0.986118C0.841853 1.30696 0.734907 1.69196 0.734907 2.11975C0.734907 2.88976 1.11991 3.57421 1.7402 3.98061C1.37658 3.95922 1.01297 3.87366 0.713518 3.70255V3.72394C0.713518 4.81478 1.48353 5.71313 2.51021 5.92702C2.3391 5.9698 2.1252 6.01258 1.9327 6.01258C1.78298 6.01258 1.65464 5.99119 1.50492 5.9698C1.78298 6.86815 2.61716 7.50982 3.60106 7.53121C2.83105 8.13011 1.86853 8.49373 0.820464 8.49373C0.627961 8.49373 0.456847 8.47234 0.285734 8.45095C1.26964 9.09262 2.44604 9.45624 3.72939 9.45624C7.85751 9.45624 10.1034 6.05536 10.1034 3.08226C10.1034 2.97531 10.1034 2.88976 10.1034 2.78281Z" fill="#FB3767"/>
</svg>
